<mxfile
  host="Electron" 
  agent="Mozilla/5.0 (Macintosh; Intel Mac OS X 10_15_7) AppleWebKit/537.36 (KHTML, like Gecko) draw.io/25.0.2 Chrome/128.0.6613.186 Electron/32.2.5 Safari/537.36" 
  version="25.0.2"
  >
  <diagram
    name="-"
    >
    <mxGraphModel
      grid="1" 
      gridSize="10" 
      guides="1" 
      tooltips="1" 
      connect="1" 
      arrows="1" 
      fold="1" 
      page="1" 
      pageScale="1" 
      pageWidth="1" 
      pageHeight="1" 
      math="0" 
      shadow="0"
      >
      <root>
        <mxCell
          id="page"
          />
        <mxCell
          id="root" 
          parent="page"
          />
        <mxCell
          style="verticalAlign=top;aspect=fixed;align=center;spacingLeft=5;spacingRight=5;spacingBottom=5;strokeColor=none;" 
          id="shape_" 
          parent="root" 
          value=" " 
          vertex="1"
          >
          <mxGeometry
            as="geometry" 
            width="120" 
            height="120" 
            x="0" 
            y="0"
            />
          </mxCell>
        <mxCell
          style="rounded=1;whiteSpace=wrap;verticalAlign=top;align=center;shape=image;editableCssRules=.*;verticalLabelPosition=bottom;labelBackgroundColor=default;aspect=fixed;imageAspect=0;image=data:image/svg+xml,PHN2ZyB4bWxucz0iaHR0cDovL3d3dy53My5vcmcvMjAwMC9zdmciIHZpZXdCb3g9Ii0wLjUgLTAuNSAyOCAyNy44OSIgaGVpZ2h0PSIyNy44OSIgd2lkdGg9IjI4Ij4mI3hhOwkgIDxzdHlsZSB0eXBlPSJ0ZXh0L2NzcyI+JiN4YTsJCS5zdDB7c3RvcC1jb2xvcjojMDBjZWFjO30mI3hhOwkJLnN0MXtzdG9wLWNvbG9yOiMwNzgzOGY7fSYjeGE7CSAgPC9zdHlsZT4mI3hhOwk8ZGVmcz4mI3hhOwkJPGxpbmVhckdyYWRpZW50IGdyYWRpZW50VW5pdHM9InVzZXJTcGFjZU9uVXNlIiB5Mj0iMjQuOTU0IiB4Mj0iMjUuMjEyIiB5MT0iMy42MjUiIHgxPSIzLjM3OSIgaWQ9IkEiPiYjeGE7CQkJPHN0b3AgY2xhc3M9InN0MCIvPiYjeGE7CQkJPHN0b3AgY2xhc3M9InN0MSIgb2Zmc2V0PSIxIi8+JiN4YTsJCTwvbGluZWFyR3JhZGllbnQ+JiN4YTsJPC9kZWZzPiYjeGE7CTxwYXRoIGZpbGw9InVybCgjQSkiIGQ9Ik0tLjA2MiAyNS4wMzNjLS4yOTEuMjkzLS40MzguNjAzLS40MzguOTMxLjAwMi4xODYuMDQyLjM2OS4xMTcuNTM5cy4xODUuMzIyLjMyMS40NDhjLjEyNi4xMzcuMjc5LjI0Ni40NDguMzIxcy4zNTMuMTE1LjUzOS4xMTdjLjMyOCAwIC42MzgtLjE0Ny45MzEtLjQzOGwzLjg5MS0zLjg5MWMxLjEzMy45ODcgMi40MTEgMS40NiAzLjgzNSAxLjQyNSAxLjQyNi0uMDc0IDIuNjY3LS42NCAzLjcyNi0xLjcwMWwxLjI2MS0xLjI1OWMuMjkzLS4yOTMuNDM4LS42MDMuNDM4LS45MzEgMC0uMzY2LS4xNDYtLjY5NC0uNDM4LS45ODdsLTcuMTI0LTcuMTIyYTEuMzYgMS4zNiAwIDAgMC0uOTg1LS40MzhjLS4zNjUgMC0uNjk0LjE0Ni0uOTg3LjQzOGwtMS4yNTkgMS4yNTljLTEuMDU5IDEuMDYxLTEuNjA4IDIuMjg1LTEuNjQ1IDMuNjcyLS4wNzIgMS4zNTIuMzQ3IDIuNTc2IDEuMjYxIDMuNjcyem0xMS4yOS00LjMyOWMtLjU4Ni41NDktMS4yNDMuODIyLTEuOTczLjgyMnMtMS4zODktLjI3My0xLjk3My0uODIybC0xLjA5Ni0xLjA5NmMtLjU0OS0uNTg0LS44MjItMS4yNDEtLjgyMi0xLjk3M3MuMjc0LTEuMzg3LjgyMi0xLjk3M2wuMjcyLS4yNzRMMTEuNSAyMC40M2wtLjI3NC4yNzN6bTIuNjMtNC44NzZjLjEyNi4xMzYuMjc4LjI0NS40NDcuMzIxYTEuMzYgMS4zNiAwIDAgMCAuNTM4LjExN2MuMzMgMCAuNjQtLjE0NS45MzMtLjQzOGwyLjUxOC0yLjUyMSAxLjA5NiAxLjA5NmMuMTI2LjEzNi4yNzkuMjQ2LjQ0OC4zMjFzLjM1My4xMTUuNTM5LjExN2ExLjI1IDEuMjUgMCAwIDAgLjk4Ni0uNDM4bDEuMjYxLTEuMjA1YzEuMDU5LTEuMDU5IDEuNjI1LTIuMjY1IDEuNjk5LTMuNjE3YTUuNjcgNS42NyAwIDAgMC0xLjE1Mi0zLjc4bDMuODkxLTMuODkxQTEuMzYgMS4zNiAwIDAgMCAyNy41LjkyNGMwLS4zNjUtLjE0NS0uNjk0LS40MzgtLjk4N1MyNi40NTgtLjUgMjYuMTMxLS41Yy0uMzY2IDAtLjY5NC4xNDctLjk4Ny40MzhsLTMuODg5IDMuODkzYy0xLjA3MS0uODk0LTIuNDQzLTEuMzQ2LTMuODM2LTEuMjYyLTEuNDI2LjA3NC0yLjY2NS42NC0zLjcyNiAxLjcwMWwtMS4yNjEgMS4yNTljLS4xMjguMTMtLjIyOC4yODQtLjI5NC40NTRzLS4wOTcuMzUxLS4wOS41MzNjLS4wMDMuMTczLjAzLjM0NS4wOTcuNTA1cy4xNjUuMzA0LjI4OS40MjVsMS4xNDkgMS4xNTItMi41MiAyLjQ2NWMtLjI5My4yOTMtLjQzOC42MjEtLjQzOC45ODdhMS4zNiAxLjM2IDAgMCAwIC4xMTcuNTM4Yy4wNzUuMTY5LjE4NS4zMjIuMzIxLjQ0Ny4xMjYuMTM2LjI3OS4yNDYuNDQ4LjMyMWExLjM2IDEuMzYgMCAwIDAgLjUzOS4xMTdjLjE4NS0uMDAyLjM2OC0uMDQyLjUzOC0uMTE3cy4zMjItLjE4NS40NDctLjMyMWwyLjQ2NS0yLjUyMS44NzcuODc3LTIuNTE4IDIuNDY1Yy0uMjkzLjI5My0uNDM4LjYyMS0uNDM4Ljk4N2ExLjM2IDEuMzYgMCAwIDAgLjExNy41MzhjLjA3NS4xNjkuMTg0LjMyMi4zMjEuNDQ3em0xLjUzNC05LjMxNmwuMjc0LS4zMjhhMi42OSAyLjY5IDAgMCAxIDEuOTczLS44MjJjLjczMSAwIDEuMzY5LjI3NCAxLjkxOC44MjJsMS4wOTYgMS4xNWMuNTg0LjU0OS44NzcgMS4yMDYuODc3IDEuOTczIDAgLjczMS0uMjkzIDEuMzcxLS44NzcgMS45MThsLS4yNzMuMjc0LTQuOTg3LTQuOTg1eiIvPiYjeGE7PC9zdmc+;strokeColor=none;" 
          id="adapter_highlight_" 
          parent="shape_" 
          value=" " 
          vertex="1"
          >
          <mxGeometry
            as="geometry" 
            width="60" 
            height="60" 
            x="30" 
            y="30"
            />
          </mxCell>
        </root>
      </mxGraphModel>
    </diagram>
  </mxfile>